<?xml version="1.0" encoding="utf-8"?>
<!-- Generator: Adobe Illustrator 24.1.2, SVG Export Plug-In . SVG Version: 6.00 Build 0)  -->
<svg version="1.1" id="레이어_1" xmlns="http://www.w3.org/2000/svg" xmlns:xlink="http://www.w3.org/1999/xlink" x="0px"
	 y="0px" viewBox="0 0 160 46" style="enable-background:new 0 0 160 46;" xml:space="preserve">
<style type="text/css">
	.st0{fill:#C10230;}
	.st1{fill:#54565A;}
	.st2{fill-rule:evenodd;clip-rule:evenodd;fill:none;}
</style>
<g>
	<path class="st0" d="M105.91,7.47l0.12-0.08c0.06-0.06,0.1-0.15,0.1-0.24c0-0.2-0.15-0.35-0.35-0.35
		C96.44,6.2,54.6,3.71,38.05,3.71c-20.99,0-24.83,12.23-24.83,12.23h10.89c2.61-8.61,14.49-8.39,18.46-8.46
		c16.26,0,54.35,0.01,63.2,0.02C105.83,7.5,105.87,7.49,105.91,7.47"/>
	<path class="st1" d="M13.64,18.75c-1.24,0-1.56,0.98-1.56,0.98L6.77,37.21L6.26,38.9l-0.77,2.53c-0.01,0.05,0.02,0.08,0.06,0.08
		h8.59c0.78-0.05,2.32-0.39,2.88-2.22l6.24-20.55H13.64"/>
	<path class="st1" d="M71.82,29.57l16.68-10.82h-7.95c-0.85,0.05-1.19,0.13-1.95,0.58l-10.41,6.19l-5.99-6.7
		c-0.03-0.04-0.1-0.07-0.15-0.07H51.29c-0.05,0-0.06,0.03-0.03,0.07l9.76,10.95l-10.5,6.23l-0.01,0.01l0-0.01
		c-2.38,1.48-3.84,2.29-6.89,2.29h-2.98c-0.87,0-1.59-0.02-2.58-0.5c-0.89-0.43-1.43-1.05-1.46-2c-0.02-0.54,0.12-1.26,0.41-2.19
		l3.47-11.46c0,0,6.31,0,6.3,0c0.65-0.04,1.83-0.34,2.25-1.72l0.51-1.69h-8.08c0,0,0.57-1.29,0.56-1.29c0.83-1.67,2.11-2.9,3.62-3.6
		h-7.14c-3.13,0-5.28,1.12-6.37,3.31l-0.59,1.59H25.3l-1.04,3.42h6.34c0,0-3.65,12.1-3.65,12.1c-0.4,1.34-0.59,2.39-0.57,3.12
		c0.03,1.11,0.65,2.26,2.21,3.09c1.7,0.9,4.23,1.05,7.93,1.05h13.79c3.04,0,5.04-1.32,5.04-1.32l9.52-6.11l5.57,6.19
		c0,0,1.01,1.24,3.11,1.24h8.84c0.05,0,0.06-0.03,0.02-0.07L71.82,29.57"/>
	<path class="st1" d="M105.09,41.51l4.11-13.86h-1.67l-4.11,13.86h-3.02l6.31-21.31h3.02l-1.4,4.72H110l1.4-4.72h3.05l-6.31,21.31
		H105.09 M101.18,34.63c-1.16-0.46-2.04-1.06-2.63-1.79c-0.59-0.74-0.99-1.56-1.21-2.46c-0.76,0.9-1.66,1.72-2.69,2.46
		c-1.03,0.74-2.25,1.34-3.67,1.79l0.95-3.22c1.11-0.48,2.03-1.09,2.75-1.84c0.72-0.75,1.31-1.54,1.76-2.36
		c0.46-0.82,0.81-1.62,1.06-2.4c0.25-0.78,0.45-1.43,0.6-1.95l0.79-2.66h2.92l-0.79,2.66l-0.17,0.59c-0.17,0.57-0.34,1.23-0.52,1.96
		c-0.17,0.74-0.26,1.48-0.25,2.23c0.01,0.75,0.17,1.45,0.46,2.11c0.3,0.66,0.83,1.22,1.58,1.66L101.18,34.63z"/>
	<path class="st1" d="M126.39,41.51l6.31-21.31h3.03l-1.41,4.74h3.15l-0.81,2.73h-3.15l-4.1,13.84H126.39 M118.27,31.53h4.67
		l2.54-8.58h-4.67L118.27,31.53z M114.4,34.29l4.17-14.08h10.74l-4.17,14.08H114.4z"/>
	<path class="st1" d="M147.7,25.39c1.03,0,1.89-0.18,2.6-0.56c0.71-0.37,1.15-0.86,1.34-1.49c0.17-0.59,0.02-1.07-0.47-1.45
		c-0.49-0.38-1.24-0.57-2.27-0.57c-1.06,0-1.94,0.19-2.64,0.57c-0.7,0.38-1.14,0.86-1.31,1.45c-0.19,0.62-0.04,1.12,0.44,1.49
		C145.87,25.21,146.64,25.39,147.7,25.39 M149.63,18.85c0.91,0,1.74,0.1,2.49,0.29c0.75,0.2,1.38,0.49,1.88,0.87
		c0.5,0.39,0.85,0.86,1.04,1.42c0.19,0.55,0.19,1.2-0.03,1.92c-0.22,0.74-0.59,1.39-1.12,1.95c-0.53,0.57-1.16,1.04-1.88,1.43
		c-0.73,0.38-1.53,0.68-2.4,0.87c-0.87,0.2-1.76,0.3-2.67,0.3c-0.92,0-1.76-0.1-2.51-0.3c-0.75-0.2-1.38-0.49-1.87-0.87
		c-0.49-0.38-0.84-0.86-1.03-1.43c-0.19-0.57-0.18-1.22,0.04-1.95c0.21-0.72,0.58-1.36,1.11-1.92c0.52-0.56,1.15-1.03,1.87-1.42
		c0.72-0.38,1.51-0.68,2.39-0.87C147.81,18.95,148.71,18.85,149.63,18.85 M136.6,31.27l0.76-2.58h18.89l-0.76,2.58H136.6z M138.4,38
		l-0.29,0.98h14.1l-0.75,2.53h-17.07l1.73-5.82h14.07l0.29-0.99H136.4l0.75-2.53h17.07L152.5,38H138.4z"/>
	<path class="st2" d="M-0.02,0.45 M-0.02,45.87V0.45h159.38v45.42H-0.02z"/>
</g>
</svg>
